<svg width="24" height="24" viewBox="0 0 24 24" fill="none" xmlns="http://www.w3.org/2000/svg">
<path d="M9.11008 5.08039C9.98008 4.82039 10.9401 4.65039 12.0001 4.65039C16.7901 4.65039 20.6701 8.53039 20.6701 13.3204C20.6701 18.1104 16.7901 21.9904 12.0001 21.9904C7.21008 21.9904 3.33008 18.1104 3.33008 13.3204C3.33008 11.5404 3.87008 9.88039 4.79008 8.50039" stroke="white" stroke-width="2" stroke-linecap="round" stroke-linejoin="round"/>
<path d="M7.87012 5.32L10.7601 2" stroke="white" stroke-width="2" stroke-linecap="round" stroke-linejoin="round"/>
<path d="M7.87012 5.32031L11.2401 7.78031" stroke="white" stroke-width="2" stroke-linecap="round" stroke-linejoin="round"/>
<path d="M11.8781 17.13C11.4348 17.13 11.0331 17.0233 10.6731 16.81C10.3164 16.5933 10.0331 16.3067 9.82309 15.95C9.61642 15.59 9.51309 15.1967 9.51309 14.77H10.5531C10.5531 15.0133 10.6131 15.235 10.7331 15.435C10.8531 15.635 11.0131 15.795 11.2131 15.915C11.4131 16.0317 11.6348 16.09 11.8781 16.09C12.1181 16.09 12.3381 16.0317 12.5381 15.915C12.7381 15.795 12.8981 15.635 13.0181 15.435C13.1381 15.235 13.1981 15.0133 13.1981 14.77C13.1981 14.5267 13.1431 14.305 13.0331 14.105C12.9231 13.9017 12.7581 13.74 12.5381 13.62C12.3181 13.4967 12.0381 13.435 11.6981 13.435H9.93309L10.6431 10H14.0281V11.04H11.4881L11.2131 12.395L11.8181 12.405C12.2948 12.415 12.7131 12.525 13.0731 12.735C13.4364 12.9417 13.7214 13.2217 13.9281 13.575C14.1348 13.925 14.2381 14.3233 14.2381 14.77C14.2381 15.0933 14.1764 15.3983 14.0531 15.685C13.9298 15.9683 13.7598 16.2183 13.5431 16.435C13.3298 16.6517 13.0798 16.8217 12.7931 16.945C12.5098 17.0683 12.2048 17.13 11.8781 17.13Z" fill="white"/>
</svg>
