<svg width="28" height="28" viewBox="0 0 28 28" fill="none" xmlns="http://www.w3.org/2000/svg">
<path d="M14 17.5C15.933 17.5 17.5 15.933 17.5 14C17.5 12.067 15.933 10.5 14 10.5C12.067 10.5 10.5 12.067 10.5 14C10.5 15.933 12.067 17.5 14 17.5Z" fill="white" stroke="white" stroke-width="2" stroke-miterlimit="10" stroke-linecap="round" stroke-linejoin="round"/>
<path d="M2.33333 15.027V12.9737C2.33333 11.7603 3.325 10.757 4.55 10.757C6.66167 10.757 7.525 9.26367 6.46333 7.432C5.85667 6.382 6.21833 5.017 7.28 4.41033L9.29833 3.25533C10.22 2.707 11.41 3.03367 11.9583 3.95533L12.0867 4.177C13.1367 6.00867 14.8633 6.00867 15.925 4.177L16.0533 3.95533C16.6017 3.03367 17.7917 2.707 18.7133 3.25533L20.7317 4.41033C21.7933 5.017 22.155 6.382 21.5483 7.432C20.4867 9.26367 21.35 10.757 23.4617 10.757C24.675 10.757 25.6783 11.7487 25.6783 12.9737V15.027C25.6783 16.2403 24.6867 17.2437 23.4617 17.2437C21.35 17.2437 20.4867 18.737 21.5483 20.5687C22.155 21.6303 21.7933 22.9837 20.7317 23.5903L18.7133 24.7453C17.7917 25.2937 16.6017 24.967 16.0533 24.0453L15.925 23.8237C14.875 21.992 13.1483 21.992 12.0867 23.8237L11.9583 24.0453C11.41 24.967 10.22 25.2937 9.29833 24.7453L7.28 23.5903C6.21833 22.9837 5.85667 21.6187 6.46333 20.5687C7.525 18.737 6.66167 17.2437 4.55 17.2437C3.325 17.2437 2.33333 16.2403 2.33333 15.027Z" stroke="white" stroke-width="2" stroke-miterlimit="10" stroke-linecap="round" stroke-linejoin="round"/>
</svg>
