<svg width="138" height="138" viewBox="0 0 138 138" fill="none" xmlns="http://www.w3.org/2000/svg">
<path d="M69 0L80.1441 14.5713L96.2514 5.79245L100.505 23.6367L118.791 22.1683L115.419 40.2L132.721 46.2959L122.306 61.3973L135.633 74.0034L119.977 83.5633L127.024 100.5L108.833 102.865L108.382 121.204L90.8011 115.966L82.9301 132.536L69 120.6L55.0699 132.536L47.1989 115.966L29.6184 121.204L29.1674 102.865L10.9763 100.5L18.0234 83.5633L2.36703 74.0034L15.6936 61.3973L5.27921 46.2959L22.581 40.2L19.2093 22.1683L37.4947 23.6367L41.7486 5.79245L57.8559 14.5713L69 0Z" fill="#DEF6E8"/>
<path d="M54 68L65.3051 77L83 58" stroke="#25C164" stroke-width="6"/>
</svg>
