<svg width="28" height="28" viewBox="0 0 28 28" fill="none" xmlns="http://www.w3.org/2000/svg">
<path d="M2.33331 11.6667V16.3334C2.33331 18.6667 3.49998 19.8334 5.83331 19.8334H7.50165C7.93331 19.8334 8.36498 19.9617 8.73831 20.1834L12.145 22.3184C15.085 24.1617 17.5 22.8201 17.5 19.3551V8.64508C17.5 5.16841 15.085 3.83841 12.145 5.68175L8.73831 7.81675C8.36498 8.03841 7.93331 8.16675 7.50165 8.16675H5.83331C3.49998 8.16675 2.33331 9.33341 2.33331 11.6667Z" stroke="white" stroke-width="2"/>
<path d="M21 9.33301C23.0767 12.098 23.0767 15.9013 21 18.6663" stroke="white" stroke-width="2" stroke-linecap="round" stroke-linejoin="round"/>
<path d="M23.135 6.41699C26.5067 10.9087 26.5067 17.092 23.135 21.5837" stroke="white" stroke-width="2" stroke-linecap="round" stroke-linejoin="round"/>
</svg>
