<svg width="368" height="85" viewBox="0 0 368 85" fill="none" xmlns="http://www.w3.org/2000/svg">
<path d="M81.7617 67L69.2317 18H79.2067L87.1867 49.325L95.1667 18H104.022L112.002 49.325L119.982 18H129.957L117.497 67H106.577L99.6117 39.77L92.6817 67H81.7617ZM146.041 67.91C142.821 67.91 139.881 67.0817 137.221 65.425C134.585 63.7683 132.473 61.54 130.886 58.74C129.323 55.94 128.541 52.8483 128.541 49.465C128.541 46.9217 128.996 44.5417 129.906 42.325C130.816 40.085 132.065 38.125 133.651 36.445C135.261 34.7417 137.128 33.4117 139.251 32.455C141.375 31.4983 143.638 31.02 146.041 31.02C148.818 31.02 151.35 31.615 153.636 32.805C155.946 33.995 157.895 35.6167 159.481 37.67C161.091 39.7233 162.235 42.045 162.911 44.635C163.611 47.225 163.728 49.92 163.261 52.72H138.971C139.275 53.7467 139.741 54.68 140.371 55.52C141.025 56.3367 141.818 56.99 142.751 57.48C143.708 57.97 144.805 58.2267 146.041 58.25C147.255 58.2733 148.375 57.9933 149.401 57.41C150.428 56.8267 151.303 56.045 152.026 55.065L161.896 57.34C160.473 60.4433 158.35 62.9867 155.526 64.97C152.703 66.93 149.541 67.91 146.041 67.91ZM138.621 45.58H153.496C153.193 44.4133 152.68 43.3633 151.956 42.43C151.233 41.4967 150.358 40.7617 149.331 40.225C148.328 39.6883 147.231 39.42 146.041 39.42C144.875 39.42 143.778 39.6883 142.751 40.225C141.748 40.7617 140.885 41.4967 140.161 42.43C139.461 43.34 138.948 44.39 138.621 45.58Z" fill="#036CE3"/>
<path d="M179.313 67.63C177.516 67.49 175.789 67.1167 174.133 66.51C172.476 65.88 170.994 65.04 169.688 63.99C168.404 62.9167 167.401 61.6333 166.678 60.14L174.798 56.64C175.054 57.0133 175.439 57.4217 175.953 57.865C176.466 58.285 177.084 58.6583 177.808 58.985C178.554 59.3117 179.418 59.475 180.398 59.475C181.121 59.475 181.821 59.3933 182.498 59.23C183.174 59.0433 183.723 58.7517 184.143 58.355C184.563 57.935 184.773 57.3867 184.773 56.71C184.773 55.9633 184.504 55.3917 183.968 54.995C183.431 54.5983 182.778 54.3067 182.008 54.12C181.261 53.91 180.538 53.735 179.838 53.595C177.691 53.2217 175.661 52.5567 173.748 51.6C171.858 50.62 170.318 49.36 169.128 47.82C167.938 46.28 167.343 44.4367 167.343 42.29C167.343 39.9333 167.961 37.9033 169.198 36.2C170.434 34.4733 172.044 33.1433 174.028 32.21C176.011 31.2767 178.158 30.81 180.468 30.81C183.198 30.81 185.729 31.3817 188.063 32.525C190.396 33.6683 192.274 35.2783 193.698 37.355L186.068 41.87C185.764 41.4267 185.368 41.0067 184.878 40.61C184.411 40.19 183.863 39.84 183.233 39.56C182.626 39.2567 181.973 39.0817 181.273 39.035C180.363 38.965 179.534 39.0233 178.788 39.21C178.041 39.3733 177.446 39.6883 177.003 40.155C176.583 40.6217 176.373 41.2517 176.373 42.045C176.373 42.815 176.711 43.3867 177.388 43.76C178.064 44.11 178.846 44.3783 179.733 44.565C180.619 44.7283 181.401 44.9267 182.078 45.16C184.108 45.8133 186.009 46.6533 187.783 47.68C189.579 48.6833 191.026 49.92 192.123 51.39C193.219 52.86 193.733 54.5867 193.663 56.57C193.663 58.88 192.974 60.91 191.598 62.66C190.221 64.3867 188.436 65.705 186.243 66.615C184.073 67.5017 181.763 67.84 179.313 67.63ZM218.656 41.66H212.356V67H202.696V41.66H197.866V32H202.696V21.01H212.356V32H218.656V41.66ZM239.625 67.91C236.405 67.91 233.465 67.0817 230.805 65.425C228.169 63.7683 226.057 61.54 224.47 58.74C222.907 55.94 222.125 52.8483 222.125 49.465C222.125 46.9217 222.58 44.5417 223.49 42.325C224.4 40.085 225.649 38.125 227.235 36.445C228.845 34.7417 230.712 33.4117 232.835 32.455C234.959 31.4983 237.222 31.02 239.625 31.02C242.402 31.02 244.934 31.615 247.22 32.805C249.53 33.995 251.479 35.6167 253.065 37.67C254.675 39.7233 255.819 42.045 256.495 44.635C257.195 47.225 257.312 49.92 256.845 52.72H232.555C232.859 53.7467 233.325 54.68 233.955 55.52C234.609 56.3367 235.402 56.99 236.335 57.48C237.292 57.97 238.389 58.2267 239.625 58.25C240.839 58.2733 241.959 57.9933 242.985 57.41C244.012 56.8267 244.887 56.045 245.61 55.065L255.48 57.34C254.057 60.4433 251.934 62.9867 249.11 64.97C246.287 66.93 243.125 67.91 239.625 67.91ZM232.205 45.58H247.08C246.777 44.4133 246.264 43.3633 245.54 42.43C244.817 41.4967 243.942 40.7617 242.915 40.225C241.912 39.6883 240.815 39.42 239.625 39.42C238.459 39.42 237.362 39.6883 236.335 40.225C235.332 40.7617 234.469 41.4967 233.745 42.43C233.045 43.34 232.532 44.39 232.205 45.58ZM272.098 84.5H262.438V32H272.098V35.78C273.218 34.4033 274.548 33.2833 276.088 32.42C277.628 31.5333 279.425 31.09 281.478 31.09C284.022 31.09 286.402 31.5683 288.618 32.525C290.858 33.4817 292.818 34.8117 294.498 36.515C296.178 38.195 297.497 40.1433 298.453 42.36C299.41 44.5767 299.888 46.9567 299.888 49.5C299.888 52.0433 299.41 54.435 298.453 56.675C297.497 58.915 296.178 60.8867 294.498 62.59C292.818 64.27 290.858 65.5883 288.618 66.545C286.402 67.5017 284.022 67.98 281.478 67.98C279.425 67.98 277.628 67.5367 276.088 66.65C274.548 65.7633 273.218 64.6433 272.098 63.29V84.5ZM281.338 40.365C279.752 40.365 278.317 40.785 277.033 41.625C275.773 42.4417 274.77 43.5383 274.023 44.915C273.3 46.2917 272.938 47.82 272.938 49.5C272.938 51.18 273.3 52.72 274.023 54.12C274.77 55.4967 275.773 56.5933 277.033 57.41C278.317 58.2267 279.752 58.635 281.338 58.635C282.925 58.635 284.372 58.2267 285.678 57.41C287.008 56.5933 288.058 55.4967 288.828 54.12C289.622 52.7433 290.018 51.2033 290.018 49.5C290.018 47.8433 289.633 46.3267 288.863 44.95C288.093 43.55 287.043 42.4417 285.713 41.625C284.407 40.785 282.948 40.365 281.338 40.365Z" fill="black"/>
</svg>
